<svg xmlns="http://www.w3.org/2000/svg" width="100%" viewBox="0 0 643 120" fill="none" class="u-logo" aria-label="FF Dev Studio"><g fill="currentColor" transform="translate(46.5 0) scale(1.666667)"><path d="M0 72 16 0h14L14 72Z"/>
    <path d="M24 72 40 0h14L38 72Z"/>
    <path d="M72 0h54v15H88v13h32v14H88v30H72Z"/>
    <path d="M140 0h54v15h-38v13h32v14h-32v30h-16Z"/>
    <rect x="222" width="2" height="72"/>
    <path d="M142.49981689453125 0V111.9990234375H326.3333740234375Q406.3336181640625 111.9990234375 462.5838317871094 144.33245849609375Q518.8340454101562 176.6658935546875 548.4175109863281 233.49945068359375Q578.0009765625 290.3330078125 578.0009765625 364Q578.0009765625 436.6669921875 548.8341674804688 491.50054931640625Q519.6673583984375 546.3341064453125 463.50048828125 577.1675415039062Q407.3336181640625 608.0009765625 326.3333740234375 608.0009765625H144.999755859375V720H326.3333740234375Q445.9998779296875 720 534.999755859375 676.3333129882812Q623.9996337890625 632.6666259765625 672.9995727539062 552.1666259765625Q721.99951171875 471.6666259765625 721.99951171875 362Q721.99951171875 252.3333740234375 672.4995727539062 170.8333740234375Q622.9996337890625 89.3333740234375 534.499755859375 44.66668701171875Q445.9998779296875 0 327.3333740234375 0ZM56.000732421875 0V720H197.999267578125V0Z" transform="translate(250.0000 29) scale(0.01500 -0.01500)"/>
    <path d="M56.000732421875 0V720H197.999267578125V0ZM123.0001220703125 0V110.3323974609375H582.9996337890625V0ZM123.0001220703125 314.83392333984375V423.49969482421875H547.8329467773438V314.83392333984375ZM123.0001220703125 609.6676025390625V720H571.6663818359375V609.6676025390625Z" transform="translate(264.3250 29) scale(0.01500 -0.01500)"/>
    <path d="M287.333984375 0 26.000244140625 720H173.998779296875L381.16668701171875 105.998291015625H360.3331298828125L568.1676635742188 720H708.666259765625L447.33251953125 0Z" transform="translate(276.7450 29) scale(0.01500 -0.01500)"/>
    <path d="M343.3330078125 -9Q205.6666259765625 -9 123.25015258789062 53.416656494140625Q40.83367919921875 115.83331298828125 27.0003662109375 230H163.6656494140625Q171.3323974609375 167.83282470703125 220.83245849609375 132.91598510742188Q270.33251953125 97.9991455078125 348.99951171875 97.9991455078125Q413.66650390625 97.9991455078125 448.1666259765625 121.24929809570312Q482.666748046875 144.49945068359375 482.666748046875 184.83319091796875Q482.666748046875 222.16680908203125 461.49993896484375 244.91696166992188Q440.3331298828125 267.6671142578125 389.9996337890625 281.667236328125L258.16656494140625 319.50067138671875Q157.0001220703125 349.000732421875 110.08352661132812 398.66729736328125Q63.16693115234375 448.3338623046875 63.16693115234375 523.333740234375Q63.16693115234375 587.1669311523438 95.91683959960938 633.83349609375Q128.666748046875 680.5000610351562 188.333251953125 705.7500305175781Q247.999755859375 731 327.99951171875 731Q450.9991455078125 731 524.332275390625 672.0000610351562Q597.6654052734375 613.0001220703125 607.6654052734375 514H471.0001220703125Q460.50006103515625 570.6671142578125 421.66668701171875 597.333984375Q382.83331298828125 624.0008544921875 320.16632080078125 624.0008544921875Q264.83258056640625 624.0008544921875 232.3323974609375 602.5006713867188Q199.83221435546875 581.00048828125 199.83221435546875 543.8334350585938Q199.83221435546875 514.6663818359375 218.665771484375 492.2496032714844Q237.49932861328125 469.83282470703125 292.332763671875 453.9993896484375L425.49932861328125 415.6658935546875Q527.8322143554688 386.6658935546875 573.5821228027344 336.33258056640625Q619.33203125 285.999267578125 619.33203125 209.16595458984375Q619.33203125 104.16632080078125 546.5823059082031 47.583160400390625Q473.83258056640625 -9 343.3330078125 -9Z" transform="translate(250.0000 56) scale(0.01500 -0.01500)"/>
    <path d="M263.00048828125 0V609.6676025390625H26.000244140625V720H641.999267578125V609.6676025390625H404.9990234375V0Z" transform="translate(262.6750 56) scale(0.01500 -0.01500)"/>
    <path d="M350.0001220703125 -10Q200.0006103515625 -10 124.1673583984375 73.66656494140625Q48.3341064453125 157.3331298828125 48.3341064453125 316.16607666015625V720H190.3326416015625V292.9998779296875Q190.3326416015625 196.666259765625 232.83282470703125 150.3326416015625Q275.3330078125 103.9990234375 350.83343505859375 103.9990234375Q426.667236328125 103.9990234375 469.16741943359375 150.24929809570312Q511.6676025390625 196.49957275390625 511.6676025390625 292.16656494140625V720H653.6661376953125V314.332763671875Q653.6661376953125 157.3331298828125 577.3328857421875 73.66656494140625Q500.9996337890625 -10 350.0001220703125 -10Z" transform="translate(275.6950 56) scale(0.01500 -0.01500)"/>
    <path d="M142.49981689453125 0V111.9990234375H326.3333740234375Q406.3336181640625 111.9990234375 462.5838317871094 144.33245849609375Q518.8340454101562 176.6658935546875 548.4175109863281 233.49945068359375Q578.0009765625 290.3330078125 578.0009765625 364Q578.0009765625 436.6669921875 548.8341674804688 491.50054931640625Q519.6673583984375 546.3341064453125 463.50048828125 577.1675415039062Q407.3336181640625 608.0009765625 326.3333740234375 608.0009765625H144.999755859375V720H326.3333740234375Q445.9998779296875 720 534.999755859375 676.3333129882812Q623.9996337890625 632.6666259765625 672.9995727539062 552.1666259765625Q721.99951171875 471.6666259765625 721.99951171875 362Q721.99951171875 252.3333740234375 672.4995727539062 170.8333740234375Q622.9996337890625 89.3333740234375 534.499755859375 44.66668701171875Q445.9998779296875 0 327.3333740234375 0ZM56.000732421875 0V720H197.999267578125V0Z" transform="translate(289.2250 56) scale(0.01500 -0.01500)"/>
    <path d="M56.000732421875 0V720H197.999267578125V0Z" transform="translate(303.5500 56) scale(0.01500 -0.01500)"/>
    <path d="M397.9998779296875 -10Q318.83331298828125 -10 252.166748046875 17.083343505859375Q185.50018310546875 44.16668701171875 136.58358764648438 93.8333740234375Q87.6669921875 143.50006103515625 60.5003662109375 211.91671752929688Q33.333740234375 280.3333740234375 33.333740234375 363Q33.333740234375 472.49993896484375 79.83367919921875 555.0832824707031Q126.3336181640625 637.6666259765625 208.83349609375 683.8333129882812Q291.3333740234375 730 396.9998779296875 730Q504.6663818359375 730 586.7496032714844 683.8333129882812Q668.8328247070312 637.6666259765625 715.7494201660156 554.6666259765625Q762.666015625 471.6666259765625 762.666015625 362Q762.666015625 280.16668701171875 735.4993896484375 211.75003051757812Q708.332763671875 143.3333740234375 659.4161682128906 93.75003051757812Q610.4995727539062 44.16668701171875 543.7496643066406 17.083343505859375Q476.999755859375 -10 397.9998779296875 -10ZM396.9998779296875 103.9990234375Q462.33349609375 103.9990234375 512.0837097167969 137.08248901367188Q561.8339233398438 170.16595458984375 590.2507019042969 228.58285522460938Q618.66748046875 286.999755859375 618.66748046875 364Q618.66748046875 440.000244140625 590.7507019042969 496.83380126953125Q562.8339233398438 553.6673583984375 513.0837097167969 584.8341674804688Q463.33349609375 616.0009765625 396.9998779296875 616.0009765625Q331.49957275390625 616.0009765625 281.83270263671875 584.8341674804688Q232.16583251953125 553.6673583984375 204.74905395507812 497.33380126953125Q177.332275390625 441.000244140625 177.332275390625 364Q177.332275390625 285.999755859375 205.24905395507812 227.66619873046875Q233.16583251953125 169.3326416015625 282.83270263671875 136.66583251953125Q332.49957275390625 103.9990234375 396.9998779296875 103.9990234375Z" transform="translate(310.3600 56) scale(0.01500 -0.01500)"/></g></svg>